<?xml version="1.0" standalone="no"?>
<!DOCTYPE svg PUBLIC "-//W3C//DTD SVG 20010904//EN"
 "http://www.w3.org/TR/2001/REC-SVG-20010904/DTD/svg10.dtd">
<svg version="1.0" xmlns="http://www.w3.org/2000/svg"
 width="500.000000pt" height="500.000000pt" viewBox="0 0 500.000000 500.000000"
 preserveAspectRatio="xMidYMid meet">

<g transform="translate(0.000000,500.000000) scale(0.100000,-0.100000)"
fill="#000000" stroke="none">
<path d="M2720 4446 c-30 -6 -71 -21 -90 -32 -34 -21 -36 -21 -75 -3 -29 13
-61 18 -115 17 l-75 -1 70 -7 c61 -5 135 -31 135 -46 0 -2 -14 3 -32 12 -20
10 -56 17 -95 17 -180 0 -391 -210 -434 -431 -7 -36 -10 -102 -7 -160 5 -83
14 -122 62 -269 31 -95 56 -184 56 -197 0 -14 5 -28 10 -31 6 -4 10 11 11 37
0 52 7 39 39 -77 26 -95 74 -205 90 -205 17 0 40 64 52 150 13 96 -1 254 -25
273 -8 7 -34 41 -56 76 -33 52 -41 73 -41 111 0 101 8 108 181 179 177 71 309
162 309 212 0 13 -7 37 -15 53 -20 37 -20 36 18 25 17 -5 69 -7 114 -3 62 5
93 2 131 -10 55 -18 125 -74 146 -115 12 -24 31 -214 28 -291 l-1 -35 73 2
c84 1 85 1 87 -92 l1 -50 10 35 c5 19 8 75 6 123 -4 83 -3 86 11 60 8 -15 17
-55 21 -88 l6 -60 22 69 c54 167 2 372 -137 541 -130 158 -332 245 -491 211z
m-180 -82 c6 -5 -14 -8 -51 -6 -70 4 -141 -15 -212 -59 -68 -41 -71 -36 -7 11
30 22 75 47 100 55 48 16 154 15 170 -1z"/>
<path d="M3210 3514 c-29 -56 -64 -84 -104 -84 -30 0 -32 -3 -72 -105 -29 -74
-36 -101 -25 -95 40 21 161 150 184 195 23 47 50 126 44 131 -1 2 -13 -17 -27
-42z"/>
<path d="M3051 2959 c-5 -15 -16 -29 -23 -32 -9 -4 -7 -6 4 -6 9 -1 21 -7 25
-15 6 -12 10 -10 19 8 8 18 8 30 -2 47 l-12 24 -11 -26z"/>
<path d="M2982 2898 c-7 -7 -12 -18 -12 -26 0 -9 -7 -11 -19 -7 -14 4 -25 -1
-36 -19 -9 -14 -24 -27 -33 -29 -15 -4 -15 -5 -1 -6 10 -1 20 -14 24 -33 l8
-33 10 38 c6 22 17 37 26 38 11 0 12 2 4 6 -25 10 -12 23 21 23 38 0 55 14 30
24 -9 4 -14 13 -10 21 7 18 4 19 -12 3z"/>
<path d="M2826 2806 c2 -25 0 -46 -4 -46 -5 0 -9 -7 -9 -15 0 -18 2 -18 25 -6
9 5 26 13 37 17 17 6 18 8 3 11 -9 2 -20 17 -23 33 -3 16 -12 34 -20 40 -11 9
-13 4 -9 -34z"/>
<path d="M2356 775 c-3 -9 -6 -22 -5 -28 0 -7 5 -1 10 12 5 13 8 26 5 28 -2 2
-6 -3 -10 -12z"/>
<path d="M1885 759 c-4 -6 -5 -12 -2 -15 2 -3 7 2 10 11 7 17 1 20 -8 4z"/>
<path d="M1909 743 c-13 -16 -12 -17 4 -4 16 13 21 21 13 21 -2 0 -10 -8 -17
-17z"/>
<path d="M2431 744 c0 -11 3 -14 6 -6 3 7 2 16 -1 19 -3 4 -6 -2 -5 -13z"/>
<path d="M2011 704 c0 -11 3 -14 6 -6 3 7 2 16 -1 19 -3 4 -6 -2 -5 -13z"/>
<path d="M3013 670 c0 -30 2 -43 4 -27 2 15 2 39 0 55 -2 15 -4 2 -4 -28z"/>
<path d="M1612 690 c0 -14 2 -19 5 -12 2 6 2 18 0 25 -3 6 -5 1 -5 -13z"/>
<path d="M2989 363 c-13 -16 -12 -17 4 -4 16 13 21 21 13 21 -2 0 -10 -8 -17
-17z"/>
<path d="M2291 284 c0 -11 3 -14 6 -6 3 7 2 16 -1 19 -3 4 -6 -2 -5 -13z"/>
</g>
</svg>
